<svg aria-hidden="true" style="position:absolute;width:0;height:0" xmlns="http://www.w3.org/2000/svg" overflow="hidden"><defs>
<symbol id="icon-client-logo-1" viewBox="0 0 32 32"><path fill="var(--color1, #afb1b8)" d="M12.988 11.294l1.376 1.302h3.837v3.633l1.376 1.302v-6.237h-6.588z"/><path fill="var(--color1, #afb1b8)" d="M11.859 12.542v6.059h6.4v-2.408l-3.854-3.649-2.546-.002zm5.181 5.172h-4.168v-4.075h.295v3.799h3.873v.276zm-3.338 2.01l.154-.317h.129l-.225.423v.246h-.117v-.246l-.225-.423h.129l.154.317zm.661.196h-.259l-.054.156h-.121l.253-.669h.104l.253.669h-.121l-.055-.156zm-.227-.094h.194l-.097-.278-.097.278zm.685.069c0-.031.008-.059.025-.085s.05-.057.1-.092a.404.404 0 01-.053-.081l-.001-.002a.16.16 0 01-.015-.067c0-.053.016-.094.048-.124s.075-.046.129-.046c.049 0 .088.015.12.043s.047.064.047.106v.001a.144.144 0 01-.022.077v-.001a.252.252 0 01-.069.069l-.001.001-.046.033.129.152a.265.265 0 00.028-.123h.097c0 .082-.019.15-.058.203l.098.116h-.13l-.038-.045a.271.271 0 01-.164.054h-.007a.228.228 0 01-.159-.053.172.172 0 01-.059-.132v-.006zm.221.101a.172.172 0 00.106-.038l-.146-.172-.014.01c-.037.028-.055.06-.055.096 0 .031.01.056.03.075.02.018.046.029.075.029h.006zm-.061-.431c0 .026.016.058.047.097l.051-.035.014-.012a.084.084 0 00.028-.062v-.002-.001a.06.06 0 00-.02-.044.067.067 0 00-.048-.019h-.006a.066.066 0 00-.049.022.082.082 0 00-.019.053v.003zm1.215.293c-.007.071-.033.127-.079.167s-.107.06-.183.06a.247.247 0 01-.234-.145l-.001-.002a.379.379 0 01-.034-.16v-.065c0-.063.011-.119.034-.167s.055-.085.096-.111a.269.269 0 01.145-.039c.074 0 .133.02.178.06s.071.097.078.17h-.116c-.006-.048-.02-.083-.042-.104s-.055-.032-.099-.032c-.05 0-.089.018-.117.056s-.041.091-.041.162v.059c0 .072.013.127.039.165s.064.057.114.057c.046 0 .08-.01.103-.031s.038-.055.044-.102h.116zm.639-.099c0 .066-.011.123-.034.173a.255.255 0 01-.243.154.261.261 0 01-.243-.152l-.001-.002a.393.393 0 01-.035-.163v-.045c0-.065.011-.123.034-.173a.256.256 0 01.243-.154.259.259 0 01.243.153.4.4 0 01.035.172v.037zm-.117-.035a.296.296 0 00-.042-.171.137.137 0 00-.113-.059h-.011a.137.137 0 00-.113.059.284.284 0 00-.043.167v.039c0 .073.014.13.043.171s.069.06.119.06c.052 0 .091-.02.119-.059s.042-.096.042-.172v-.035z"/></symbol>
<symbol id="icon-client-logo-2" viewBox="0 0 32 32"><path fill="var(--color1, #afb1b8)" d="M15.431 11.658h.026c.048 0 .099.005.15.009.247.018.475.053.696.106l-.029-.006v-.539a4.008 4.008 0 00-.688-.11 4.94 4.94 0 00-.271-.013H15.228c-.466.002-.93.062-1.381.178a5.592 5.592 0 00-1.465.596v5.345a5.75 5.75 0 011.355-.535l.041-.009a5.81 5.81 0 011.156-.179l.016-.001h.016c.066-.003.132-.005.2-.006v-.548a6.463 6.463 0 00-1.569.213l.045-.01c-.184.048-.362.1-.53.157l-.191.065v-4.168l.081-.039a5.208 5.208 0 011.965-.504l.014-.001h.018c.076-.004.152-.006.227-.006h.086l.119.004z"/><path fill="var(--color1, #afb1b8)" d="M16.774 12.223h-.005c-.28 0-.554-.024-.821-.069l.029.004a4.098 4.098 0 01-.278-.056l.029.006v5.284c.343.085.695.126 1.048.123a5.623 5.623 0 001.42-.187l-.039.009a5.59 5.59 0 001.492-.61l-.026.014v-5.25a5.793 5.793 0 01-1.355.535l-.041.009a5.923 5.923 0 01-1.452.186zm2.113.091l.191-.064v4.169l-.081.039c-.276.135-.6.255-.938.342l-.036.008a5.087 5.087 0 01-1.246.161c-.126 0-.25-.005-.371-.016l-.13-.011v-4.288l.152.01c.1.007.218.011.336.011h.014-.001a6.456 6.456 0 001.627-.213l-.045.01c.178-.047.354-.1.529-.159zm-6.136 6.738a.28.28 0 00-.202-.086h-.01.001-.004a.3.3 0 00-.12.024l.002-.001a.28.28 0 00-.156.157l-.001.002a.301.301 0 00-.022.118v.714c-.002.05.008.1.028.146a.256.256 0 00.17.147c.036.01.071.015.107.015a.303.303 0 00.296-.301v-.08h-.187v.068a.158.158 0 01-.012.061v-.001a.113.113 0 01-.027.04.125.125 0 01-.078.027l-.011.001a.093.093 0 01-.076-.039.164.164 0 01-.025-.088v-.674a.235.235 0 01.023-.107.097.097 0 01.092-.043h.004a.1.1 0 01.08.04.152.152 0 01.031.092v.066h.185v-.073-.003a.319.319 0 00-.024-.124l.001.002a.298.298 0 00-.063-.101zm1.109-.008a.32.32 0 00-.323-.059.294.294 0 00-.17.156l-.001.002a.327.327 0 00-.027.138v.685a.296.296 0 00.099.236.304.304 0 00.209.08.32.32 0 00.213-.08.293.293 0 00.098-.236v-.685-.006a.331.331 0 00-.028-.134l.001.002a.31.31 0 00-.07-.1zm-.088.923v.011a.122.122 0 01-.038.089.136.136 0 01-.176 0 .123.123 0 01-.038-.088l.001-.011v-.685-.01c0-.035.014-.066.037-.089a.136.136 0 01.176 0 .123.123 0 01.038.088l-.001.011v.685zm1.544.306v-1.297h-.18l-.236.686h-.003l-.238-.686h-.178v1.297h.185v-.789h.003l.181.558h.092l.183-.558h.003v.789h.185zm1.053-1.206a.261.261 0 00-.105-.071.398.398 0 00-.127-.02H15.855v1.297h.185v-.507h.095a.344.344 0 00.167-.035.28.28 0 00.101-.098l.001-.001c.021-.034.036-.073.042-.113s.01-.088.01-.136v-.012.001a.718.718 0 00-.018-.185.276.276 0 00-.068-.119zm-.096.395a.175.175 0 01-.017.069v-.001a.102.102 0 01-.047.045h-.001a.179.179 0 01-.078.017h-.094v-.441h.104c.027 0 .053.006.076.017h-.001a.103.103 0 01.043.047v.001a.18.18 0 01.016.072v.086c0 .03.002.061 0 .089h-.002zm.971-.486h-.151l-.286 1.297h.185l.054-.279h.252l.054.279h.185l-.293-1.297zm-.171.842l.091-.47h.003l.09.47h-.185zm1.365-.061h-.003l-.279-.781h-.177v1.297h.185v-.78h.004l.282.78h.174v-1.297h-.185v.781zm1.129-.781l-.149.516h-.004l-.149-.516h-.196l.254.749v.548h.185v-.548l.254-.749h-.196zm-7.332 1.663h.089v.25h.06v-.25h.088v-.051h-.238v.051zm.749-.051l-.117.301h.064l.025-.069h.12l.026.069h.066l-.12-.301h-.064zm-.009.182l.041-.112.041.112h-.082zm.749.008h.07v.039a.11.11 0 01-.072.025h-.004a.076.076 0 01-.06-.029.125.125 0 01-.022-.072v-.007c0-.067.029-.101.087-.101h.007c.03 0 .055.02.062.048l.059-.011c-.013-.059-.055-.088-.128-.088h-.004a.151.151 0 00-.101.039.148.148 0 00-.044.105v.019c0 .04.015.078.039.106a.148.148 0 00.105.044h.015c.047 0 .09-.018.123-.048v-.119h-.13v.051zm.755-.19h-.061v.301h.211v-.051h-.15v-.25zm.639 0h-.061v.301h.061v-.301zm.625.201l-.123-.201h-.059v.301h.056v-.197l.121.197h.06v-.301h-.056v.201zm.565-.033h.15v-.051h-.15v-.066h.161v-.051h-.222v.301h.229v-.051h-.168v-.081zm1.37-.05h-.119v-.119h-.06v.301h.06v-.132h.119v.132h.06v-.301h-.06v.119zm.568.05h.151v-.051h-.151v-.066h.162v-.051h-.222v.301h.228v-.051h-.168v-.081zm.77 0c.053-.008.079-.036.079-.084l.001-.009a.071.071 0 00-.03-.058.174.174 0 00-.076-.018h-.012.001-.128v.301h.06v-.126h.017c.012 0 .023.003.033.007a.056.056 0 01.021.022l.066.096h.072l-.037-.059a.218.218 0 00-.066-.072h-.001zm-.061-.041h-.045v-.075h.048l.013-.001c.017 0 .034.003.05.008h-.001a.045.045 0 01.01.014c.002.005.003.01.003.016v.001a.043.043 0 01-.016.03.16.16 0 01-.05.007h-.012.001zm.642.041h.15v-.051h-.15v-.066h.162v-.051h-.223v.301h.229v-.051h-.168v-.081z"/></symbol>
<symbol id="icon-client-logo-3" viewBox="0 0 32 32"><path fill="var(--color1, #afb1b8)" d="M13.43 19.914c.006 0 .011.003.015.006l.039.041a.313.313 0 01-.109.077.386.386 0 01-.154.028h-.008a.364.364 0 01-.14-.027l.003.001a.313.313 0 01-.179-.183l-.001-.002a.386.386 0 01-.024-.139v-.006-.006c0-.05.01-.098.027-.142l-.001.003a.318.318 0 01.191-.185.421.421 0 01.288-.002.387.387 0 01.104.065l-.033.043a.03.03 0 01-.008.008.02.02 0 01-.011.003h-.002a.024.024 0 01-.014-.005l-.018-.011-.024-.015a.256.256 0 00-.075-.026h-.002a.29.29 0 00-.053-.005H13.232a.29.29 0 00-.106.02l.002-.001a.232.232 0 00-.084.055.257.257 0 00-.055.087.33.33 0 000 .23.25.25 0 00.054.086c.022.024.05.042.08.053a.301.301 0 00.159.015.22.22 0 00.128-.06.037.037 0 01.018-.008zm1.118-.204a.375.375 0 01-.026.144.307.307 0 01-.073.111.331.331 0 01-.112.072l-.002.001a.432.432 0 01-.297-.001l.003.001a.338.338 0 01-.114-.073.341.341 0 01-.073-.11l-.001-.002a.412.412 0 01.001-.29l-.001.003a.333.333 0 01.073-.113.342.342 0 01.112-.07l.002-.001a.438.438 0 01.297.001l-.003-.001a.325.325 0 01.187.184.375.375 0 01.026.144zm-.101 0v-.006a.336.336 0 00-.019-.111l.001.002a.226.226 0 00-.132-.14l-.002-.001a.308.308 0 00-.216.001l.002-.001a.233.233 0 00-.134.139v.002a.38.38 0 000 .231.229.229 0 00.132.14l.002.001a.315.315 0 00.214 0 .226.226 0 00.134-.14.322.322 0 00.018-.115zm.864.121l.01.026.011-.026.013-.027-.001.001.247-.428c.005-.008.009-.012.014-.013l.017-.002h.077v.697h-.087v-.534-.012-.013.001l-.249.435a.036.036 0 01-.014.016.037.037 0 01-.021.006h-.015c-.008 0-.015-.002-.021-.006s-.011-.009-.015-.016l-.256-.437v.56h-.084v-.696h.077l.017.002c.006.003.011.007.013.013l.253.429a.09.09 0 01.012.024v.001zm.931-.034v.261h-.097v-.696h.224c.04 0 .079.006.115.016l-.003-.001c.031.008.06.023.085.043a.18.18 0 01.048.068.228.228 0 01-.001.178.18.18 0 01-.052.069.254.254 0 01-.084.046h-.002a.385.385 0 01-.117.016l-.117-.002zm0-.075h.117a.235.235 0 00.075-.011.135.135 0 00.087-.075v-.001a.149.149 0 00.012-.057v-.002-.007a.135.135 0 00-.01-.05v.001a.127.127 0 00-.034-.048.192.192 0 00-.116-.038l-.015.001h.001-.117v.287zm1.302.337h-.076-.001a.036.036 0 01-.02-.006.038.038 0 01-.012-.016l-.066-.168h-.331l-.068.168a.048.048 0 01-.012.016.038.038 0 01-.021.007h-.077l.29-.697h.101l.294.697zm-.48-.259h.273l-.115-.284a.45.45 0 01-.021-.062l-.001-.003-.011.037-.011.032.001-.002-.114.283zm.898-.435a.047.047 0 01.015.013l.424.525v-.541h.087v.697h-.048-.001c-.007 0-.013-.002-.019-.004a.047.047 0 01-.015-.013l-.423-.525v.542h-.087v-.697h.051c.006 0 .012.001.017.003zm1.239.416v.277h-.097v-.277l-.268-.42h.089a.03.03 0 01.019.006c.005.004.009.01.013.016l.168.271c.007.011.013.022.017.032l.012.029.013-.03c.005-.011.01-.022.017-.032l.165-.273a.064.064 0 01.013-.015.032.032 0 01.019-.007h.09l-.268.422zm-3.938-1.589l.128.013c.653-.279 1.206-.734 1.589-1.31s.579-1.247.564-1.929l-.72-.686a3.787 3.787 0 01-.207 2.192l.009-.025a4.01 4.01 0 01-1.363 1.745z"/><path fill="var(--color1, #afb1b8)" d="M15.006 18.16l.019.004a3.88 3.88 0 001.44-1.797 3.7 3.7 0 00.128-2.282l.006.026-1.025-.977c.321.606.509 1.325.509 2.088 0 .178-.01.353-.03.525l.002-.021c-.1.89-.464 1.734-1.048 2.435zm3.478-2.389a3.53 3.53 0 01-1.207 1.926c-.168.14-.356.27-.554.382l-.019.01a3.428 3.428 0 001.337-.721l-.004.003c.371-.324.664-.727.855-1.183l.008-.021-.416-.396z"/><path fill="var(--color1, #afb1b8)" d="M18.321 15.661l-.592-.564a3.462 3.462 0 01-.564 1.834l.008-.013a3.712 3.712 0 01-1.449 1.299h.003c.133 0 .265-.008.397-.023a3.658 3.658 0 001.429-.999l.004-.004a3.39 3.39 0 00.76-1.507l.004-.023zm-3.229-2.94l-.706-.674c-.632.232-1.175.641-1.558 1.173s-.59 1.161-.592 1.806c.002.713.254 1.404.715 1.965s1.106.959 1.832 1.132c.648-.752 1.027-1.681 1.083-2.653s-.215-1.934-.774-2.749zm4.861 2.836c-.002-.846-.356-1.656-.984-2.254s-1.478-.935-2.366-.937c-.41 0-.817.072-1.199.213l4.325 4.12a2.98 2.98 0 00.224-1.141v-.001z"/></symbol>
<symbol id="icon-client-logo-4" viewBox="0 0 32 32"><path fill="var(--color1, #afb1b8)" d="M10.805 14.462a.762.762 0 00-.771.751v.001a.76.76 0 00.771.751.762.762 0 00.771-.751v-.001a.76.76 0 00-.771-.751zm5.691-.24c-.001-.576-.237-1.129-.655-1.536s-.985-.637-1.576-.639c-.592.001-1.159.231-1.577.638s-.654.96-.655 1.537v3.179s4.463-.484 4.464-3.178v-.001zm-8.025 4.222c.002.42.176.798.456 1.069a1.573 1.573 0 002.194 0c.28-.271.454-.649.456-1.068v-2.212s-3.105.338-3.105 2.211zm1.553.396h-.001a.41.41 0 01-.227-.068l.002.001a.401.401 0 01-.149-.175l-.001-.003a.375.375 0 01-.023-.232v.003a.398.398 0 01.111-.203.415.415 0 01.206-.108h.003a.41.41 0 01.418.169.386.386 0 01.037.375l.001-.003a.39.39 0 01-.22.215.413.413 0 01-.156.03v-.002zm3.169-.246h-.318v.328h-.166v-.803h.523v.134h-.357v.207h.318v.134zm.796-.055c0 .079-.014.148-.042.208a.318.318 0 01-.293.187h-.007a.319.319 0 01-.298-.183l-.001-.002a.461.461 0 01-.044-.199v-.047c0-.079.014-.149.043-.209a.32.32 0 01.3-.187.324.324 0 01.299.187c.029.06.043.129.043.208v.036zm-.168-.036a.34.34 0 00-.045-.192.148.148 0 00-.123-.066H13.64a.148.148 0 00-.122.065v.001a.339.339 0 00-.046.19v.039c0 .082.015.146.045.191s.073.068.13.068h.007c.05 0 .095-.026.121-.065v-.001a.337.337 0 00.045-.191v-.039zm.704.209v-.005a.086.086 0 00-.033-.067.412.412 0 00-.119-.053.829.829 0 01-.141-.057l.005.002c-.091-.049-.137-.116-.137-.199 0-.043.012-.082.036-.116s.06-.061.105-.08a.399.399 0 01.307.002.238.238 0 01.142.217h-.166c0-.037-.011-.065-.035-.085s-.056-.031-.098-.031a.152.152 0 00-.094.026.08.08 0 00-.034.065v.002c0 .026.013.048.039.066s.065.034.116.05c.094.028.163.063.206.105s.064.094.064.156c0 .07-.026.124-.079.164s-.123.059-.212.059a.405.405 0 01-.169-.034.271.271 0 01-.116-.092l-.001-.001a.236.236 0 01-.04-.132v-.005h.166c0 .088.053.133.159.133.04 0 .07-.008.092-.024a.079.079 0 00.033-.064v-.003zm.883-.459h-.246v.669h-.165v-.669h-.243v-.134h.654v.134zm.578.321h-.318v.215h.373v.133h-.538v-.803h.537v.134h-.372v.191h.318v.13zm.449.054h-.132v.294h-.166v-.803h.299c.095 0 .168.021.219.063s.077.102.077.179a.243.243 0 01-.036.137.24.24 0 01-.106.086l-.002.001.174.328v.008h-.177l-.151-.294zm-.131-.134h.133a.145.145 0 00.097-.031.116.116 0 00.034-.082v-.006c0-.038-.011-.068-.033-.089s-.054-.033-.099-.033h-.133v.241zm1.002.145v.283h-.165v-.803h.313c.06 0 .113.011.159.033s.081.053.106.094c.025.04.037.087.037.139 0 .079-.027.141-.081.186s-.128.068-.223.068h-.145zm0-.134h.148c.044 0 .077-.01.1-.031s.035-.05.035-.088v-.006a.131.131 0 00-.035-.09.132.132 0 00-.096-.038h-.152v.252zm1.047.069h-.318v.215h.373v.133h-.538v-.803h.537v.134h-.372v.191h.318v.13zm.768-.321h-.246v.669h-.165v-.669h-.243v-.134h.654v.134zm.577.321h-.318v.215h.373v.133h-.538v-.803h.537v.134h-.372v.191h.318v.13zm.45.054h-.132v.294h-.165v-.803h.298c.095 0 .168.021.219.063s.077.102.077.179a.243.243 0 01-.036.137.24.24 0 01-.106.086l-.002.001.174.328v.008h-.178l-.15-.294zm-.132-.134h.133a.143.143 0 00.097-.031.116.116 0 00.034-.082v-.006c0-.038-.011-.068-.033-.089s-.054-.033-.099-.033h-.133v.241zm.972.218v-.005a.086.086 0 00-.033-.067.412.412 0 00-.119-.053.829.829 0 01-.141-.057l.005.002c-.091-.049-.137-.116-.137-.199 0-.043.012-.082.036-.116s.06-.061.105-.08a.399.399 0 01.154-.029h.006c.053 0 .104.012.149.032l-.002-.001c.045.021.08.05.104.088s.037.081.037.129h-.165c0-.037-.011-.065-.035-.085s-.056-.031-.098-.031a.152.152 0 00-.094.026.081.081 0 00-.034.065v.002c0 .026.013.048.039.066s.065.034.116.05c.094.028.163.063.206.105s.064.094.064.156c0 .07-.026.124-.079.164s-.123.059-.212.059h-.005a.402.402 0 01-.166-.035l.003.001a.271.271 0 01-.116-.092l-.001-.001a.236.236 0 01-.04-.132v-.005h.166c0 .088.053.133.159.133.039 0 .07-.008.092-.024a.079.079 0 00.033-.064v-.003z"/></symbol>
<symbol id="icon-client-logo-5" viewBox="0 0 32 32"><path fill="var(--color1, #afb1b8)" d="M11.386 19.064a.298.298 0 01.065.19v.015c0 .09-.039.17-.101.226a.435.435 0 01-.293.088h-.516v-1.206h.505l.028-.001c.094 0 .182.03.253.082l-.001-.001c.06.051.098.126.098.211v.015-.001a.27.27 0 01-.213.278c.069.013.13.049.174.103zm-.605-.182h.216a.203.203 0 00.137-.04.142.142 0 00.047-.106l-.001-.013V18.714a.149.149 0 00-.046-.107.203.203 0 00-.142-.04h.001-.212v.316zm.374.462a.148.148 0 00.051-.113v-.01-.009a.152.152 0 00-.052-.115.226.226 0 00-.133-.044h-.015.001-.226v.331h.229a.227.227 0 00.145-.042zm1.263.238l-.281-.471h-.106v.471h-.242v-1.206h.457l.031-.001c.11 0 .21.039.288.104l-.001-.001a.382.382 0 01.033.5l.001-.001a.366.366 0 01-.218.122l.299.482h-.263zm-.386-.635h.198c.137 0 .206-.061.206-.183v-.01a.175.175 0 00-.051-.125.213.213 0 00-.137-.05l-.019.001h.001-.2l.002.367zm1.707.393h-.482l-.085.243h-.253l.442-1.192h.274l.44 1.192h-.253l-.083-.243zm-.064-.183l-.176-.509-.176.509h.352zm1.718.425h-.24l-.538-.82v.82h-.239v-1.206h.239l.538.824v-.824h.24v1.206zm1.369-.288a.524.524 0 01-.214.211l-.003.001a.703.703 0 01-.337.076h-.427v-1.206h.446c.116 0 .226.028.323.076l-.004-.002c.092.046.168.12.217.21a.698.698 0 01-.002.636l.002-.004zm-.274-.029a.442.442 0 00-.001-.576v.001a.415.415 0 00-.274-.103l-.027.001h.001-.167v.78h.167a.415.415 0 00.301-.103zm-2.598-7.594s3.097 1.174 3.031 2.872v2.873s-3.094-1.175-3.03-2.873l-.001-2.872zm5.789 5.073a4.182 4.182 0 011.949-.726l.019-.002v-.899a4.071 4.071 0 00-1.958 1.611l-.01.017z"/><path fill="var(--color1, #afb1b8)" d="M19.328 17.014a4.236 4.236 0 012.29-2.077l.029-.01v-2.591s-4.41 1.672-4.317 4.091v4.091s.197-.075.506-.215c0-.131 0-.263.014-.395a4.253 4.253 0 011.473-2.888l.006-.005z"/><path fill="var(--color1, #afb1b8)" d="M18.909 18.534c.023-.284.075-.564.154-.838a3.943 3.943 0 00-.934 2.466v.004c.359-.173.637-.322.908-.481l-.06.033a4.11 4.11 0 01-.068-1.2l-.001.016zm.175.015a4.11 4.11 0 00.058 1.098l-.004-.025c1.205-.724 2.559-1.842 2.507-3.194v-.118a3.945 3.945 0 00-2.294 1.077l.001-.001a3.939 3.939 0 00-.268 1.149l-.001.014z"/></symbol>
<symbol id="icon-client-logo-6" viewBox="0 0 32 32"><path fill="var(--color1, #afb1b8)" d="M16.139 15.69a.607.607 0 01-.109-.348l.001-.041v.002-.562c0-.172.036-.303.107-.392s.194-.134.367-.134c.163 0 .279.038.347.114a.488.488 0 01.102.336v.132h-.291v-.134-.017a.772.772 0 00-.009-.118l.001.004a.138.138 0 00-.041-.078.157.157 0 00-.093-.031l-.013.001h.001-.012a.162.162 0 00-.099.033.151.151 0 00-.048.085v.001a.718.718 0 00-.011.139v.681a.372.372 0 00.037.191.15.15 0 00.057.046h.001a.137.137 0 00.058.012l.018-.001h-.001.012a.149.149 0 00.092-.032.14.14 0 00.043-.082v-.001a.777.777 0 00.009-.136v-.138h.291v.126l.001.035c0 .119-.038.23-.103.32l.001-.002c-.067.083-.181.125-.349.125s-.294-.044-.366-.137zm1.214.006c-.074-.088-.11-.215-.11-.383v-.591c0-.167.037-.293.11-.379s.197-.128.369-.128c.171 0 .294.043.367.128s.111.212.111.379v.591c0 .167-.038.295-.112.383s-.197.132-.366.132c-.169 0-.295-.044-.369-.131zm.505-.142a.366.366 0 00.035-.175v-.723l.001-.019a.349.349 0 00-.036-.154l.001.002a.136.136 0 00-.059-.047h-.001a.148.148 0 00-.057-.011l-.021.001h.001l-.02-.001a.14.14 0 00-.058.012h.001a.136.136 0 00-.059.047.328.328 0 00-.035.171v.726c-.004.06.008.12.035.175a.184.184 0 00.06.043h.001a.191.191 0 00.151-.001h-.001a.178.178 0 00.061-.043v-.003zm.693-1.322h.314l.236 1.09.241-1.09h.305l.031 1.573h-.226l-.024-1.093-.233 1.093h-.181l-.241-1.097-.022 1.097h-.228l.028-1.573zm1.478 0h.489c.282 0 .422.149.422.447 0 .285-.148.427-.445.427h-.166v.699h-.302l.002-1.573zm.418.673a.214.214 0 00.166-.05.267.267 0 00.043-.178v-.018a.501.501 0 00-.016-.129l.001.004a.123.123 0 00-.059-.074h-.001a.288.288 0 00-.119-.025h-.017.001-.117v.47h.117zm.928-.673h.324l.332 1.573h-.281l-.066-.363h-.289l-.068.363h-.285l.332-1.573zm.277 1.029l-.113-.66-.113.66h.226zm.648-1.029h.211l.404.897v-.897h.25v1.573h-.201l-.407-.937v.937h-.259l.001-1.573zm1.452.974l-.336-.971h.283l.205.624.193-.624h.277l-.332.971v.6h-.29v-.6zm-7.147 1.287v.082h-.246v.639h-.103v-.639h-.247v-.082h.597zm.772.721h-.082a.032.032 0 01-.02-.007.04.04 0 01-.013-.016l-.071-.171h-.341l-.071.171a.04.04 0 01-.011.019.038.038 0 01-.021.007h-.082l.302-.721h.105l.305.718zm-.5-.268h.285l-.12-.294c-.008-.018-.015-.041-.022-.064l-.001-.004-.011.038-.011.03-.12.293zm1.02.198a.523.523 0 00.056 0 .34.34 0 00.094-.023l-.002.001a.352.352 0 00.04-.018v-.162h-.121-.001a.02.02 0 01-.015-.006.016.016 0 01-.006-.013v-.056h.234v.277a.44.44 0 01-.124.058l-.003.001a.47.47 0 01-.073.015h-.002a.77.77 0 01-.087.005h-.004a.427.427 0 01-.152-.028l.003.001a.345.345 0 01-.198-.187l-.001-.002a.375.375 0 01-.028-.145v-.005-.005c0-.052.01-.103.028-.149l-.001.003c.017-.043.044-.082.078-.114s.075-.058.121-.075a.496.496 0 01.318-.003c.021.008.041.017.06.029s.036.024.053.038l-.029.045c-.002.004-.006.007-.01.01a.033.033 0 01-.014.004.033.033 0 01-.019-.006.284.284 0 01-.031-.018l.001.001a.202.202 0 00-.039-.019l-.002-.001a.333.333 0 00-.053-.016h-.002a.411.411 0 00-.072-.006h-.008a.317.317 0 00-.115.021l.002-.001a.257.257 0 00-.089.057.248.248 0 00-.056.09.355.355 0 00.001.243l-.001-.003a.262.262 0 00.148.148.322.322 0 00.12.014zm.961-.012h.329v.082h-.43v-.721h.103l-.002.639zm.673.082h-.103v-.721h.103v.721zm.383-.718c.006.003.011.008.016.013l.441.544v-.013-.014.001-.537h.09v.724H20.405c-.007 0-.013-.002-.019-.004a.054.054 0 01-.016-.014l-.44-.543v.561h-.086v-.721h.054c.006 0 .012.001.017.003zm1.306-.003v.079h-.366v.238h.296v.076h-.296v.246h.366v.079h-.472v-.72h.472zm-10.81-4.455l4.581 1.231v4.315l-4.581-1.23v-4.315zm-.294-.367v4.893l5.168 1.39v-4.892l-5.168-1.39z"/><path fill="var(--color1, #afb1b8)" d="M12.886 20.224l-5.168-1.391v-4.892l5.168 1.39v4.893z"/><path fill="var(--color1, #afb1b8)" d="M10.202 11.983l4.521 1.216-1.923 1.82-4.521-1.216 1.923-1.82zm-.086-.312l-2.399 2.271 5.168 1.39 2.398-2.271-5.168-1.39zm3.061 8.278l2.107-1.995-2.107-.567v2.562z"/></symbol>
<symbol id="icon-facebook-icon" viewBox="0 0 32 32"><path fill="var(--color1, #afb1b8)" d="M21.328 5.312h2.923V.224A36.478 36.478 0 0020.144 0h-.157.008c-4.213 0-7.099 2.65-7.099 7.52V12H8.25v5.688h4.646V32h5.698V17.69h4.461l.707-5.688h-5.168V8.08c0-1.643.443-2.768 2.734-2.768z"/></symbol>
<symbol id="icon-feature-antenna" viewBox="0 0 32 32"><path fill="var(--color2, #212121)" d="M30.773 22.098l-8.443-8.505.937-4.616c.225.09.485.144.758.146h.033a2.16 2.16 0 10-2.029-1.42l-.005-.015-4.96.606L8.973.161a.53.53 0 00-.376-.16.536.536 0 00-.373.155L6.712 1.66a.535.535 0 000 .754l.814.825C6.383 5.301 5.71 7.761 5.71 10.378c0 4.106 1.656 7.824 4.336 10.525l-.001-.001a.49.49 0 00.146.097 2.986 2.986 0 00-.052.546v6.188h-6.4a2.669 2.669 0 00-2.667 2.666v1.067c0 .295.239.534.534.534H26.14a.534.534 0 00.533-.534v-1.067a2.67 2.67 0 00-2.666-2.666h-6.4v-2.742a14.784 14.784 0 0010.166-1.502l-.077.039.818.823a.534.534 0 00.376.16.536.536 0 00.373-.155l1.512-1.504a.535.535 0 000-.754zM23.28 6.233a1.067 1.067 0 11.752 1.822h-.004a1.066 1.066 0 01-.747-1.822h-.002zm-1.256 3.504l-.598 2.946-1.175-1.183 1.774-1.763zm-.605-.902l-1.92 1.909-1.486-1.493 3.406-.416zM24.004 28.8a1.6 1.6 0 011.6 1.6v.534H2.138V30.4a1.6 1.6 0 011.6-1.6h20.267zm-7.466-2.134v1.067h-5.334v-1.067h5.334zM11.204 25.6v-4.053c0-1.294 1.196-2.346 2.667-2.346s2.667 1.053 2.667 2.346V25.6h-5.334zm6.4-1.696v-2.357c0-1.882-1.675-3.413-3.733-3.413h-.058c-1.353 0-2.54.707-3.213 1.771l-.009.016a13.817 13.817 0 01-3.812-9.55c0-2.314.567-4.496 1.569-6.414l-.036.077 18.602 18.709c-1.823.947-3.979 1.502-6.266 1.502-1.079 0-2.128-.124-3.136-.357l.093.018zm11.289-.684L7.836 2.039l.754-.752 7.935 7.98c.004 0 .006.007.01.01l13.114 13.191-.757.752z"/><path fill="var(--color3, #2196f3)" d="M13.876 20.267h-.007a1.6 1.6 0 00-.003 3.2h.007a1.6 1.6 0 00.002-3.2zm.373 1.978a.534.534 0 11-.378-.912.533.533 0 01.374.911h.005z"/></symbol>
<symbol id="icon-feature-astronaut" viewBox="0 0 32 32"><path fill="var(--color3, #2196f3)" d="M31.974 4.524a.535.535 0 00-.427-.362h-.003l-1.911-.278-.855-1.731c-.179-.365-.777-.365-.956 0l-.855 1.731-1.911.278a.534.534 0 00-.296.91l1.383 1.348-.326 1.903a.532.532 0 00.774.562l1.709-.899 1.709.899a.534.534 0 00.773-.566v.003l-.326-1.903 1.383-1.348a.535.535 0 00.134-.55l.001.004zm-2.463 1.327a.53.53 0 00-.153.472l.191 1.114-1-.526a.525.525 0 00-.501.001l.003-.001-1 .526.191-1.114a.533.533 0 00-.153-.472l-.81-.789 1.119-.163a.53.53 0 00.401-.292l.501-1.013.5 1.013a.532.532 0 00.402.292l1.119.162-.809.79zm-3.377 14.671h-1.067v1.067h1.067v-1.067zm0 2.134h-1.067v1.066h1.067v-1.066zm1.066-1.067h-1.067v1.067H27.2v-1.067zM25.067 21.589H24v1.067h1.067v-1.067zm-2.667 4.8h-1.067v1.067H22.4v-1.067zm0 2.134h-1.067v1.067H22.4v-1.067zm1.067-1.067H22.4v1.067h1.067v-1.067zm-2.133 0h-1.067v1.067h1.067v-1.067zM16 24.256h-1.067v1.067H16v-1.067zm0 2.133h-1.067v1.067H16v-1.067zm1.067-1.067H16v1.067h1.067v-1.067z"/><path fill="var(--color3, #2196f3)" d="M14.934 25.322h-1.067v1.067h1.067v-1.067zm-9.067-19.2H4.8v1.066h1.067V6.122zm0 2.134H4.8v1.066h1.067V8.256zm1.066-1.067H5.866v1.067h1.066V7.189zm-2.133 0H3.733v1.067H4.8V7.189z"/><path fill="var(--color2, #212121)" d="M24.715 14.16a1.774 1.774 0 00-1.179-.703l-.009-.001a1.769 1.769 0 00-1.344.355l.004-.003-1.253.96-1.898 1.417-1.358-.541c2.421-1.086 4.113-3.508 4.113-6.32 0-3.823-3.122-6.934-6.961-6.934S7.869 5.5 7.869 9.324c0 1.386.415 2.674 1.12 3.759l-2.768-.024c-.009 0-.016.005-.023.005a.511.511 0 00-.159.033l.004-.001c-.013.005-.026.007-.038.013-.006.003-.013.003-.019.006l-3.233 1.596-.001.001-1.893.91a.429.429 0 00-.064.036l.001-.001a1.782 1.782 0 00-.594 2.306l-.005-.01c.22.424.592.742 1.043.885l.013.003a1.772 1.772 0 001.388-.133l-.009.005 1.388-.738 2.264-1.169 1.357-.008-5.442 5.415-.001.001-1.339 1.333c-.303.299-.49.714-.49 1.173v.005a1.66 1.66 0 001.666 1.663h.004a1.67 1.67 0 001.18-.485l1.314-1.309 1.741-1.3.901.897-3.102 3.088a1.645 1.645 0 00-.491 1.174v.004a1.662 1.662 0 001.666 1.664h.003a1.67 1.67 0 001.18-.485l4.488-4.472c.007-.006.016-.009.022-.016l5.166-5.658 3.471.494a.474.474 0 00.262-.032c.018-.006.033-.015.05-.023.019-.01.039-.015.058-.027l3.213-2.133c.012-.008.018-.021.029-.03.013-.01.029-.014.041-.026l1.271-1.191c.348-.326.564-.787.564-1.3 0-.4-.132-.769-.355-1.066l.003.005zM2.13 17.77a.706.706 0 01-.564.05l.005.001a.717.717 0 01-.214-1.258l.002-.001 1.314-.632.316.924.133.389-.992.527zm3.497-1.828l-1.548.8-.255-.746-.184-.537 2.027-1.001-.04 1.484zm15.1-6.62c0 .918-.219 1.785-.599 2.56l-4.181-1.899a1.865 1.865 0 00-.782-1.384l-.006-.004 1.463-4.861c2.378.756 4.105 2.974 4.105 5.588zm-11.789 0c0-3.235 2.644-5.867 5.894-5.867.253 0 .5.022.745.053l-1.432 4.753c-.019 0-.037-.006-.057-.006h-.001a1.872 1.872 0 00-1.872 1.867 1.873 1.873 0 001.872 1.867h.001c.695 0 1.295-.383 1.618-.944l3.863 1.755a5.893 5.893 0 01-4.737 2.389c-3.25 0-5.894-2.632-5.894-5.867zm5.957.8c0 .441-.362.8-.806.8h-.001a.804.804 0 01-.804-.8c0-.441.361-.8.806-.8s.806.359.806.8zM2.464 25.146a.606.606 0 01-.855.001.591.591 0 010-.844l.962-.959.852.848-.959.955zm3.214 3.734a.606.606 0 01-.855.001.591.591 0 010-.844l.963-.959.852.848-.96.955zm3.482-3.469l-.001.001-1.765 1.76-.852-.848 1.765-1.757a.527.527 0 00.09-.136c.007-.014.02-.026.026-.04.016-.041.019-.085.026-.128.003-.025.014-.048.014-.073 0-.035-.013-.07-.02-.105-.006-.032-.006-.064-.019-.096a.536.536 0 00-.092-.138c-.01-.012-.014-.027-.025-.038h-.001l-.001-.002-1.607-1.6c-.017-.017-.039-.024-.058-.038a.563.563 0 00-.084-.057l-.003-.001a.415.415 0 00-.09-.031l-.003-.001a.502.502 0 00-.101-.02h-.002l-.023-.001a.603.603 0 00-.075.005h.003c-.036.005-.069.009-.104.021a.512.512 0 00-.097.046l.002-.001c-.02.011-.042.015-.061.029l-1.773 1.324-.901-.897 2.399-2.386 4.361 4.289-.928.919zm6.819-7.017c-.015-.002-.03.004-.045.003l-.027-.001a.562.562 0 00-.092.008h.003a.484.484 0 00-.187.07l.002-.001a.492.492 0 00-.083.061c-.013.011-.028.016-.04.029l-4.698 5.146-4.328-4.256 2.833-2.818a.535.535 0 00-.378-.911h-.002l-2.219.013.028-1.607 3.104.027a6.928 6.928 0 004.978 2.101h.003c.438 0 .864-.046 1.28-.122.04.032.08.064.129.085l2.41.96.152.759.178.885-3.003-.427zm4.041.178l-.313-1.558 1.446-1.08.946 1.257-2.08 1.381zm3.754-2.831l-.838.785-.931-1.237.831-.637a.735.735 0 01.543-.143.718.718 0 01.621.71.71.71 0 01-.226.521z"/><path fill="var(--color2, #212121)" d="M13.602 18.544l-2.143-2.134a.53.53 0 00-.752 0l-2.143 2.134a.535.535 0 000 .756l2.143 2.134a.53.53 0 00.752 0l2.143-2.134a.532.532 0 000-.756zm-2.519 1.759l-1.387-1.381 1.386-1.381 1.387 1.381-1.387 1.381zm6.081-15.232l-.258 1.036c.071.018 1.738.452 1.738 2.149h1.067c0-2.017-1.666-2.965-2.547-3.184zm2.547 4.251h-1.067v1.066h1.067V9.322z"/></symbol><symbol id="icon-feature-clock" viewBox="0 0 32 32"><path fill="var(--color2, #212121)" d="M31.296 15.301C31.295 6.849 24.441-.002 15.988 0S.685 6.855.687 15.308c.002 6.788 4.422 12.543 10.541 14.545l.108.031a.667.667 0 00.529-.065.636.636 0 00.283-.357l3.865-12.25a1.913 1.913 0 10-.852-3.63l.011-.005-5.106-5.107a.638.638 0 00-.902.902l5.103 5.109a1.847 1.847 0 00-.191.826c0 .602.283 1.137.723 1.48l.004.003-3.682 11.673C3.843 25.782.117 17.709 2.797 10.431S13.551-.573 20.829 2.108c7.278 2.681 11.004 10.754 8.323 18.032-1.345 3.581-4.003 6.406-7.374 7.938l-.088.036-.398-1.874a.639.639 0 00-1.05-.343l.001-.001-3.837 3.426a.637.637 0 00.227 1.083l.005.001 4.899 1.563a.637.637 0 00.818-.744l.001.004-.391-1.839c5.528-2.374 9.329-7.772 9.329-14.057v-.034.002zm-15.304-.637a.638.638 0 010 1.276.638.638 0 010-1.276zm2.1 14.864l2.184-1.948.603 2.84-2.787-.892z"/><path fill="var(--color3, #2196f3)" d="M15.354 3.185V4.46a.638.638 0 001.276 0V3.185a.638.638 0 10-1.276 0zM3.876 14.664a.638.638 0 000 1.276h1.275a.638.638 0 000-1.276H3.876zm24.232 1.275a.638.638 0 000-1.276h-1.275a.638.638 0 000 1.276h1.275z"/></symbol>
<symbol id="icon-feature-laptop" viewBox="0 0 32 32"><path fill="var(--color3, #2196f3)" d="M14.926 14.965h1.066v4.798h-1.066v-4.798zm4.264 2.132h1.066v2.665H19.19v-2.665zm-8.529 1.599h1.066v1.066h-1.066v-1.066zm-3.198-.533h1.066v1.599H7.463v-1.599z"/><path fill="var(--color2, #212121)" d="M1.599 28.291h25.586a1.6 1.6 0 001.599-1.599V24.56a1.6 1.6 0 00-1.599-1.599h-.533V9.667l3.028-2.868a1.608 1.608 0 10-.742-.752l-.004-.01-2.281 2.162v-1.23a1.6 1.6 0 00-1.599-1.599H3.731a1.6 1.6 0 00-1.599 1.599v15.992h-.533A1.6 1.6 0 000 24.56v2.132a1.6 1.6 0 001.599 1.599zM30.384 4.837a.533.533 0 010 1.066.533.533 0 010-1.066zM3.198 6.969c0-.294.239-.533.533-.533h21.323c.294 0 .533.239.533.533v2.239l-1.066 1.013V8.036a.534.534 0 00-.534-.534H4.798a.534.534 0 00-.534.533v13.327c0 .294.239.533.534.533h19.189a.534.534 0 00.534-.533v-9.675l1.066-1.01V22.96H3.198V6.969zm4.798 6.93h-.005a1.6 1.6 0 101.112 2.748l1.853.93a.535.535 0 00.636-.122l3.939-4.432 3.872 2.902a.534.534 0 00.686-.039l3.365-3.188v8.131H5.331V8.568h18.123v2.661l-3.771 3.572-3.904-2.927a.534.534 0 00-.718.071v.001l-3.993 4.493-1.493-.746c.011-.064.017-.128.02-.193a1.6 1.6 0 00-1.599-1.599zm.533 1.599a.533.533 0 01-1.066 0 .533.533 0 011.066 0zm3.198 8.528h5.33v.533a.533.533 0 01-.533.533h-4.265a.533.533 0 01-.533-.533v-.533zm-10.66.534c0-.294.238-.533.533-.533h9.062v.533a1.6 1.6 0 001.599 1.599h4.265a1.6 1.6 0 001.599-1.599v-.533h9.062c.294 0 .533.239.533.533v2.132a.533.533 0 01-.533.533H1.601a.533.533 0 01-.533-.533V24.56z"/></symbol>
<symbol id="icon-form-mail-icon" viewBox="0 0 32 32"><path d="M28 4H4a2.997 2.997 0 00-2.986 3L1 25c0 1.65 1.35 3 3 3h24c1.65 0 3-1.35 3-3V7c0-1.65-1.35-3-3-3zm-.6 6.376l-10.604 6.628c-.226.141-.501.225-.795.225s-.569-.084-.801-.229l.006.004L4.6 10.374a1.275 1.275 0 111.354-2.157l-.005-.003 10.05 6.286 10.05-6.286a1.274 1.274 0 111.356 2.157l-.006.003z"/></symbol>
<symbol id="icon-form-name-icon" viewBox="0 0 32 32"><path d="M16 16a8 8 0 000-16 8 8 0 000 16zm0 4c-5.339 0-16 2.68-16 8v2c0 1.099.901 2 2 2h28c1.099 0 2-.901 2-2v-2c0-5.32-10.661-8-16-8z"/></symbol>
<symbol id="icon-form-phone-icon" viewBox="0 0 32 32"><path d="M27.419 20.853l-4.201-.48a3.28 3.28 0 00-2.713.941l-3.045 3.045c-4.718-2.435-8.467-6.185-10.835-10.764l-.065-.139L9.623 10.4a3.282 3.282 0 00.942-2.729l.002.016-.48-4.169A3.314 3.314 0 006.8.592H3.932C2.062.587.508 2.142.622 4.009 1.5 18.135 12.796 29.417 26.908 30.295c1.867.114 3.424-1.44 3.424-3.31v-2.862-.016a3.279 3.279 0 00-2.897-3.256l-.015-.001z"/></symbol>
<symbol id="icon-icon-send" viewBox="0 0 32 32"><path fill="var(--color4, #fff)" d="M32 0L0 18l10.227 3.787L26 7 14.003 23.187l.009.003-.012-.003V32l5.735-6.691L27.002 28l4.999-28z"/></symbol>
<symbol id="icon-instagram-icon" viewBox="0 0 32 32"><path fill="var(--color1, #afb1b8)" d="M31.968 9.408c-.074-1.701-.349-2.869-.742-3.882a7.839 7.839 0 00-1.85-2.837l-.001-.001A7.906 7.906 0 0026.597.861l-.054-.018C25.524.449 24.362.176 22.661.101 20.949.019 20.405 0 16.059 0c-4.344 0-4.888.019-6.595.094-1.699.074-2.869.349-3.88.742a7.847 7.847 0 00-2.839 1.85l-.001.001A7.9 7.9 0 00.919 5.465l-.018.054C.506 6.538.232 7.7.157 9.401c-.082 1.712-.101 2.256-.101 6.602 0 4.344.019 4.888.094 6.595.075 1.701.35 2.869.744 3.882a7.915 7.915 0 001.849 2.837l.001.001c.8.813 1.77 1.443 2.832 1.843 1.019.395 2.182.67 3.882.744 1.707.075 2.251.094 6.595.094 4.346 0 4.89-.019 6.595-.094 1.701-.074 2.869-.349 3.882-.742a8.237 8.237 0 004.664-4.628l.019-.055c.394-1.019.669-2.182.744-3.882.075-1.707.093-2.251.093-6.595s-.006-4.888-.08-6.595zm-2.88 13.066c-.07 1.563-.333 2.406-.55 2.97a5.341 5.341 0 01-3.004 3.024l-.036.012c-.56.219-1.411.482-2.968.55-1.688.075-2.194.094-6.464.094-4.269 0-4.782-.019-6.464-.094-1.563-.069-2.406-.331-2.97-.55a4.953 4.953 0 01-1.836-1.192l-.001-.001a4.978 4.978 0 01-1.184-1.803L3.6 25.45c-.218-.563-.48-1.413-.549-2.97-.075-1.688-.094-2.195-.094-6.464 0-4.27.019-4.784.094-6.464.069-1.563.331-2.406.549-2.97a4.897 4.897 0 011.198-1.837l.002-.002a4.972 4.972 0 011.806-1.182l.034-.011c.56-.219 1.411-.48 2.968-.55 1.688-.074 2.195-.093 6.464-.093 4.275 0 4.782.019 6.464.093 1.563.069 2.406.331 2.97.55a4.91 4.91 0 011.837 1.194c.531.52.938 1.144 1.195 1.84.218.56.48 1.411.549 2.968.075 1.688.094 2.194.094 6.464 0 4.269-.019 4.768-.094 6.458z"/><path fill="var(--color1, #afb1b8)" d="M16.059 7.782a8.223 8.223 0 00-8.219 8.221 8.223 8.223 0 0016.442.008v-.009a8.223 8.223 0 00-8.221-8.221zm0 13.552a5.333 5.333 0 01.001-10.666h.001a5.334 5.334 0 110 10.668zM26.525 7.458a1.92 1.92 0 01-3.84 0 1.92 1.92 0 013.84 0z"/></symbol>
<symbol id="icon-linkedin-icon" viewBox="0 0 32 32"><path fill="var(--color1, #afb1b8)" d="M31.992 32H32V20.262c0-5.741-1.235-10.163-7.947-10.163-3.227 0-5.392 1.77-6.277 3.45h-.093v-2.914h-6.365v21.363h6.627V21.42c0-2.786.528-5.48 3.978-5.48 3.398 0 3.45 3.179 3.45 5.658V32h6.619zM.528 10.635h6.635V32H.528V10.635zM3.843 0A3.843 3.843 0 000 3.843c0 2.12 1.722 3.878 3.843 3.878 2.12 0 3.842-1.757 3.842-3.878S5.965.002 3.844 0z"/></symbol>
<symbol id="icon-mail-icon" viewBox="0 0 32 32"><path fill="var(--color5, #757575)" d="M29 4H3C1.346 4 0 5.256 0 6.8v16.804c0 1.544 1.346 2.8 3 2.8h26c1.654 0 3-1.256 3-2.8V6.8C32 5.256 30.654 4 29 4zm0 1.866c.136 0 .266.028.384.074L16 16.768 2.616 5.94c.114-.046.246-.073.384-.074h26zm0 18.67H3c-.552 0-1-.418-1-.932V7.912l13.344 10.796c.176.142.403.228.65.228h.012c.247 0 .474-.086.652-.23l-.002.002L30 7.912v15.692c0 .514-.448.932-1 .932z"/></symbol>
<symbol id="icon-phone-icon" viewBox="0 0 32 32"><path fill="var(--color5, #757575)" d="M23.467 0H8.534c-1.764 0-3.2 1.34-3.2 2.987v25.89c0 1.647 1.436 2.987 3.2 2.987h14.933c1.764 0 3.2-1.34 3.2-2.987V2.987c0-1.647-1.436-2.987-3.2-2.987zM8.533 1.993h14.933c.589 0 1.067.446 1.067.994v20.911H7.466V2.987c0-.548.478-.994 1.067-.994zm14.934 27.88H8.534c-.589 0-1.067-.448-1.067-.996V25.89h17.067v2.987c0 .548-.478.994-1.067.994z"/></symbol>
<symbol id="icon-twitter-icon" viewBox="0 0 32 32"><path fill="var(--color1, #afb1b8)" d="M32 6.078c-1.1.493-2.376.857-3.713 1.028l-.068.007a6.556 6.556 0 002.873-3.579l.013-.046a12.88 12.88 0 01-4.076 1.573l-.084.014A6.558 6.558 0 0015.6 9.557v.004c0 .52.043 1.021.152 1.496-5.454-.266-10.28-2.88-13.522-6.861a6.524 6.524 0 00-.902 3.313v.001a6.57 6.57 0 002.914 5.451 6.453 6.453 0 01-2.994-.823l.033.017v.072a6.592 6.592 0 005.213 6.44l.043.008a6.403 6.403 0 01-1.662.215h-.061.003c-.419 0-.843-.024-1.242-.112.85 2.598 3.261 4.509 6.13 4.57a13.093 13.093 0 01-8.122 2.8H1.57h.001-.062c-.531 0-1.055-.034-1.569-.099l.061.006c2.826 1.846 6.287 2.944 10.004 2.944h.063-.003c12.072 0 18.672-10 18.672-18.669 0-.288-.01-.57-.024-.848a13.203 13.203 0 003.258-3.355l.03-.047z"/></symbol></defs></svg>